<?xml version="1.0" encoding="UTF-8" standalone="no"?>
<!-- Created with Inkscape (http://www.inkscape.org/) -->

<svg
   width="104.023mm"
   height="75.530998mm"
   viewBox="0 0 104.023 75.530998"
   version="1.1"
   id="svg1"
   inkscape:version="1.3.2 (1:1.3.2+202311252150+091e20ef0f)"
   sodipodi:docname="composicion_1.svg"
   inkscape:export-filename="composicion_1.png"
   inkscape:export-xdpi="96"
   inkscape:export-ydpi="96"
   xmlns:inkscape="http://www.inkscape.org/namespaces/inkscape"
   xmlns:sodipodi="http://sodipodi.sourceforge.net/DTD/sodipodi-0.dtd"
   xmlns="http://www.w3.org/2000/svg"
   xmlns:svg="http://www.w3.org/2000/svg">
  <sodipodi:namedview
     id="namedview1"
     pagecolor="#ffffff"
     bordercolor="#000000"
     borderopacity="0.25"
     inkscape:showpageshadow="2"
     inkscape:pageopacity="0.0"
     inkscape:pagecheckerboard="0"
     inkscape:deskcolor="#d1d1d1"
     inkscape:document-units="mm"
     inkscape:zoom="1.5019781"
     inkscape:cx="165.11559"
     inkscape:cy="231.36156"
     inkscape:window-width="1920"
     inkscape:window-height="1043"
     inkscape:window-x="1920"
     inkscape:window-y="0"
     inkscape:window-maximized="1"
     inkscape:current-layer="layer1" />
  <defs
     id="defs1" />
  <g
     inkscape:label="Capa 1"
     inkscape:groupmode="layer"
     id="layer1"
     transform="translate(-61.189117,-54.998542)">
    <path
       style="fill:none;stroke:#000000;stroke-width:0.529167;stroke-linecap:butt;stroke-linejoin:miter;stroke-dasharray:none;stroke-opacity:1"
       d="m 112.09618,59.257317 c 0,0 -10.04041,3.86064 -10.04041,8.85327 0,4.76578 10.77896,5.00806 10.67532,11.75795 -0.063,4.10294 -10.80383,4.71932 -10.86354,10.05706 -0.0461,4.1188 11.30507,4.24371 11.25153,10.129003 -0.0538,5.9124 -11.50751,9.94646 -11.50751,9.94646"
       id="path36"
       sodipodi:nodetypes="cssssc" />
    <path
       style="fill:none;stroke:#000000;stroke-width:0.529167;stroke-linecap:butt;stroke-linejoin:miter;stroke-dasharray:none;stroke-opacity:1"
       d="m 116.20996,59.471407 c 0,0 -10.0404,3.86064 -10.0404,8.85327 0,4.76578 10.77895,5.00806 10.67531,11.75795 -0.063,4.10294 -10.80382,4.71932 -10.86354,10.05706 -0.0461,4.1188 11.30508,4.24371 11.25154,10.129003 -0.0538,5.9124 -11.50751,9.94646 -11.50751,9.94646"
       id="path37"
       sodipodi:nodetypes="cssssc" />
    <path
       style="fill:none;stroke:#000000;stroke-width:0.529167;stroke-linecap:butt;stroke-linejoin:miter;stroke-dasharray:none;stroke-opacity:1"
       d="m 120.84924,59.795047 c 0,0 -10.0404,3.86064 -10.0404,8.85327 0,4.76578 10.77895,5.00806 10.67531,11.75795 -0.063,4.10294 -10.80382,4.71932 -10.86354,10.05706 -0.0461,4.1188 11.30508,4.24371 11.25153,10.129003 -0.0538,5.9124 -11.50751,9.94646 -11.50751,9.94646"
       id="path38"
       sodipodi:nodetypes="cssssc" />
    <path
       style="fill:none;stroke:#000000;stroke-width:0.529167;stroke-linecap:butt;stroke-linejoin:miter;stroke-dasharray:none;stroke-opacity:1"
       d="m 150.94521,58.487839 c 0,0 -10.05014,3.41334 -10.05014,7.82752 0,4.21361 10.7894,4.42782 10.68566,10.39566 -0.0631,3.62757 -10.81429,4.17253 -10.87406,8.89184 -0.0461,3.64159 11.31603,3.75202 11.26244,8.95544 -0.0538,5.22738 -11.51867,8.794051 -11.51867,8.794051"
       id="path39"
       sodipodi:nodetypes="cssssc" />
    <path
       style="fill:none;stroke:#000000;stroke-width:0.529167;stroke-linecap:butt;stroke-linejoin:miter;stroke-dasharray:none;stroke-opacity:1"
       d="m 151.905,66.156219 c 0,0 -10.05014,3.41334 -10.05014,7.82752 0,4.21361 10.78941,4.42782 10.68567,10.39566 -0.0631,3.62756 -10.8143,4.17253 -10.87407,8.89183 -0.0461,3.64159 11.31603,3.75203 11.26244,8.955451 -0.0539,5.22738 -11.51867,8.79405 -11.51867,8.79405"
       id="path40"
       sodipodi:nodetypes="cssssc" />
    <path
       style="fill:none;stroke:#000000;stroke-width:0.529167;stroke-linecap:butt;stroke-linejoin:miter;stroke-dasharray:none;stroke-opacity:1"
       d="m 151.27543,62.395999 c 0,0 -10.05013,3.41334 -10.05013,7.82752 0,4.21361 10.7894,4.42782 10.68566,10.39566 -0.0631,3.62756 -10.8143,4.17253 -10.87407,8.89183 -0.0462,3.64159 11.31602,3.75203 11.26243,8.95545 -0.0538,5.227381 -11.51865,8.794051 -11.51865,8.794051"
       id="path41"
       sodipodi:nodetypes="cssssc" />
    <path
       style="fill:none;stroke:#000000;stroke-width:0.529167;stroke-linecap:butt;stroke-linejoin:miter;stroke-dasharray:none;stroke-opacity:1"
       d="m 79.020988,59.257317 c 0,0 6.905126,14.83219 4.5117,15.52451 -1.139451,0.3296 -11.48699,-14.16969 -12.446455,-13.31867 -1.471977,1.30562 -2.105649,4.99477 -2.105649,6.64743 0,1.30639 9.175962,4.4191 9.377029,6.15562 0.228998,1.97775 -8.426444,2.56183 -6.805138,3.57755 2.148382,1.34593 8.146298,-0.76756 8.103424,2.02478 -0.03586,2.3355 3.712756,8.77812 0.696711,10.36806 -2.282466,1.20323 -11.534527,-2.61037 -11.560252,-0.311 -0.02617,2.33938 3.79965,-6.81107 6.948965,-5.26127 2.395489,1.17883 4.3257,12.84768 4.302568,15.390273 -0.0193,2.1211 -8.141554,-4.019333 -10.040076,-2.481273 -3.39345,2.749163 -1.467434,12.427733 -1.467434,12.427733"
       id="path42"
       sodipodi:nodetypes="csssssssssssc" />
    <path
       style="fill:none;stroke:#000000;stroke-width:0.529167;stroke-linecap:butt;stroke-linejoin:miter;stroke-dasharray:none;stroke-opacity:1"
       d="m 83.134772,59.471407 c 0,0 1.03338,10.2933 -1.94116,12.88696 -1.51721,1.32293 -8.099244,-5.72009 -8.099244,-4.03369 0,2.6052 -3.195176,11.54451 -0.29161,13.24819 2.408035,1.41293 11.01391,-4.55033 10.966925,-1.49024 -0.063,4.10294 -10.803823,4.71932 -10.863541,10.05706 -0.04608,4.1188 11.305076,4.24371 11.251533,10.129003 -0.01785,1.96183 -8.749611,-5.915463 -10.442842,-4.446003 -3.409689,2.95907 -1.064668,14.392463 -1.064668,14.392463"
       id="path43"
       sodipodi:nodetypes="csssssssc" />
    <path
       style="fill:none;stroke:#000000;stroke-width:0.529167;stroke-linecap:butt;stroke-linejoin:miter;stroke-dasharray:none;stroke-opacity:1"
       d="m 74.361214,59.412577 c 0,0 13.446556,9.78625 10.727111,11.64638 -2.257514,1.54416 -7.354679,-4.67526 -7.354679,-2.41064 0,2.5059 -11.178065,13.31927 -8.366833,14.92752 1.063526,0.60842 -4.636418,-9.0188 -0.899052,-10.17534 5.171761,-1.60041 16.342239,4.63241 16.313711,6.49043 -0.03298,2.14815 -7.095434,-1.29055 -9.917001,0.12413 -2.567588,1.28733 2.7094,7.90518 2.680949,10.44827 -0.03036,2.71331 -4.658547,9.648613 -1.315491,11.684043 1.731703,1.05436 8.078637,-10.883843 8.060366,-8.875553 -0.0225,2.47284 -11.791292,5.59439 -14.130108,7.252313 -3.253143,2.30612 7.129256,10.01462 7.129256,10.01462"
       id="path44"
       sodipodi:nodetypes="cssssssssssc" />
    <text
       xml:space="preserve"
       style="font-weight:bold;font-size:4.23333px;line-height:1;font-family:Cabin;-inkscape-font-specification:'Cabin Bold';text-align:center;text-anchor:middle;fill:#000080;fill-opacity:1;stroke:none;stroke-width:0.529167;stroke-dasharray:none;stroke-opacity:1"
       x="61.91745"
       y="117.81452"
       id="text44"><tspan
         sodipodi:role="line"
         id="tspan44"
         style="fill:#000080;fill-opacity:1;stroke:none;stroke-width:0.529167"
         x="61.91745"
         y="117.81452" /></text>
    <text
       xml:space="preserve"
       style="font-weight:bold;font-size:4.23333px;line-height:1;font-family:Cabin;-inkscape-font-specification:'Cabin Bold';text-align:center;text-anchor:middle;fill:#000080;fill-opacity:1;stroke:none;stroke-width:0.529167;stroke-dasharray:none;stroke-opacity:1"
       x="74.650566"
       y="123.9001"
       id="text45"><tspan
         sodipodi:role="line"
         id="tspan45"
         style="stroke-width:0.529167"
         x="74.650566"
         y="123.9001">SIN DISEÑO</tspan></text>
    <text
       xml:space="preserve"
       style="font-weight:bold;font-size:4.23333px;line-height:1;font-family:Cabin;-inkscape-font-specification:'Cabin Bold';text-align:center;text-anchor:middle;fill:#000080;fill-opacity:1;stroke:none;stroke-width:0.529167;stroke-dasharray:none;stroke-opacity:1"
       x="111.55941"
       y="119.22861"
       id="text46"><tspan
         sodipodi:role="line"
         id="tspan46"
         style="stroke-width:0.529167"
         x="111.55941"
         y="119.22861">SEPARANDO</tspan><tspan
         sodipodi:role="line"
         style="stroke-width:0.529167"
         x="111.55941"
         y="123.46194"
         id="tspan47">LAS</tspan><tspan
         sodipodi:role="line"
         style="stroke-width:0.529167"
         x="111.55941"
         y="127.69527"
         id="tspan48">COSAS</tspan></text>
    <text
       xml:space="preserve"
       style="font-weight:bold;font-size:4.23333px;line-height:1;font-family:Cabin;-inkscape-font-specification:'Cabin Bold';text-align:center;text-anchor:middle;fill:#000080;fill-opacity:1;stroke:none;stroke-width:0.529167;stroke-dasharray:none;stroke-opacity:1"
       x="148.40288"
       y="123.96148"
       id="text49"><tspan
         sodipodi:role="line"
         id="tspan49"
         style="stroke-width:0.529167"
         x="148.40288"
         y="123.96148">COMPOSICIÓN</tspan></text>
  </g>
</svg>
